<!--?xml version="1.0" encoding="utf-8"?-->
<!-- Generator: Adobe Illustrator 18.1.1, SVG Export Plug-In . SVG Version: 6.00 Build 0)  -->

<svg version="1.1" id="_x32_" xmlns="http://www.w3.org/2000/svg" xmlns:xlink="http://www.w3.org/1999/xlink" x="0px" y="0px" viewBox="0 0 512 512" style="width: 64px; height: 64px; opacity: 1;" xml:space="preserve">
<style type="text/css">
	.st0{fill:#4B4B4B;}
</style>
<g>
	<path class="st0" d="M506.734,117.695c-5.06-11.96-13.434-22.128-24.22-29.417c-11.048-7.481-23.969-11.434-37.41-11.434H66.892
		c-9.04,0-17.804,1.768-26.042,5.258c-11.959,5.064-22.131,13.442-29.42,24.228C3.941,117.394-0.012,130.326,0,143.737v224.526
		c-0.004,9.018,1.768,17.781,5.266,26.043c5.064,11.966,13.434,22.135,24.216,29.416c11.048,7.48,23.969,11.434,37.372,11.434
		h378.25c9.037,0,17.796-1.776,26.042-5.273c11.96-5.05,22.132-13.427,29.42-24.212c7.489-11.064,11.442-23.996,11.434-37.408
		V143.737C512,134.703,510.228,125.94,506.734,117.695z M474.28,368.271c-0.007,3.945-0.776,7.759-2.285,11.342
		c-2.185,5.157-5.946,9.72-10.597,12.854c-4.891,3.29-10.373,4.957-16.294,4.965H66.892c-3.941,0-7.759-0.765-11.345-2.278
		c-5.15-2.177-9.716-5.937-12.859-10.608c-3.281-4.88-4.953-10.362-4.964-16.284V143.729c0.004-3.945,0.772-7.759,2.285-11.341
		c2.17-5.142,5.93-9.705,10.597-12.855c4.903-3.289,10.38-4.957,16.282-4.965h378.216c3.93,0,7.748,0.772,11.346,2.286
		c5.153,2.17,9.724,5.93,12.862,10.593c3.278,4.879,4.953,10.353,4.968,16.29V368.271z" style="fill: rgb(255, 255, 255);"></path>
	<path class="st0" d="M413.681,158.144h-56.037L248.913,353.856h164.768c9.4,0,17.02-7.62,17.02-17.016V175.168
		C430.701,165.764,423.081,158.144,413.681,158.144z" style="fill: rgb(255, 255, 255);"></path>
</g>
</svg>
