<!--?xml version="1.0" encoding="utf-8"?-->
<!-- Generator: Adobe Illustrator 18.0.0, SVG Export Plug-In . SVG Version: 6.00 Build 0)  -->

<svg version="1.1" id="_x32_" xmlns="http://www.w3.org/2000/svg" xmlns:xlink="http://www.w3.org/1999/xlink" x="0px" y="0px" viewBox="0 0 512 512" style="width: 64px; height: 64px; opacity: 1;" xml:space="preserve">
<style type="text/css">
	.st0{fill:#4B4B4B;}
</style>
<g>
	<path class="st0" d="M349.444,369.978H315.14c-9.288,0-16.844-7.55-16.844-16.836v-174.11c0-11.04-8.983-20.027-20.023-20.027
		h-44.546c-11.04,0-20.021,8.987-20.021,20.027v174.11c0,9.286-7.556,16.836-16.844,16.836h-34.305
		c-5.538,0-9.503,1.848-11.168,5.198c-1.666,3.354-0.738,7.628,2.609,12.046l89.594,118.093C246.864,509.628,251.27,512,256,512
		c4.73,0,9.136-2.372,12.408-6.685l89.594-118.093c3.348-4.418,4.274-8.692,2.611-12.046
		C358.948,371.826,354.982,369.978,349.444,369.978z" style="fill: rgb(255, 255, 255);"></path>
	<path class="st0" d="M445.316,0H66.684C56.218,0,47.704,8.517,47.704,18.983v318.112h130.383v-66.786h-63.602V66.785h283.03
		v203.524h-63.602v66.786h130.384V18.983C464.296,8.517,455.781,0,445.316,0z" style="fill: rgb(255, 255, 255);"></path>
</g>
</svg>
